<svg width="49" height="42" viewBox="0 0 49 42" fill="none" xmlns="http://www.w3.org/2000/svg">
<path d="M26.1099 23.8103C26.1147 22.7329 26.2591 21.6606 26.5398 20.6203H24.8398C24.5541 20.6189 24.2747 20.5364 24.0339 20.3824C23.7932 20.2283 23.6011 20.0092 23.48 19.7503L22.1499 16.9003L18.9399 23.5703C18.8225 23.82 18.6377 24.032 18.4062 24.1822C18.1748 24.3324 17.9058 24.4148 17.6299 24.4203C17.3533 24.4284 17.0799 24.3598 16.8398 24.2221C16.5998 24.0845 16.4027 23.8831 16.27 23.6403L13.5798 18.6403L12.5798 20.0703C12.4422 20.2719 12.2572 20.4367 12.041 20.55C11.8248 20.6634 11.584 20.7219 11.3398 20.7203H7.95996C7.56214 20.7203 7.18047 20.5623 6.89917 20.281C6.61787 19.9997 6.45996 19.6182 6.45996 19.2203C6.45996 18.8225 6.61787 18.441 6.89917 18.1597C7.18047 17.8784 7.56214 17.7203 7.95996 17.7203H10.5598L12.48 14.9203C12.6268 14.7095 12.8253 14.54 13.0564 14.4279C13.2875 14.3159 13.5434 14.2651 13.7998 14.2803C14.0564 14.2916 14.3058 14.3694 14.5232 14.5061C14.7406 14.6429 14.9186 14.8339 15.0398 15.0603L17.5 19.6003L20.7998 12.7203C20.9228 12.4645 21.1159 12.2488 21.3567 12.0983C21.5974 11.9478 21.876 11.8688 22.1599 11.8703C22.4444 11.8721 22.7227 11.9536 22.9631 12.1056C23.2036 12.2576 23.3965 12.4741 23.52 12.7303L25.78 17.6003H27.78C28.8674 15.6986 30.4379 14.1181 32.3328 13.0188C34.2276 11.9195 36.3792 11.3404 38.5698 11.3403C41.3437 11.3377 44.0381 12.2675 46.22 13.9803C46.22 13.7103 46.22 13.4403 46.22 13.1703C46.2203 12.4842 46.17 11.7991 46.0698 11.1203C46.0098 10.7303 45.9298 10.3503 45.8398 9.97034C45.2951 7.88381 44.2365 5.96696 42.7605 4.39484C41.2844 2.82271 39.438 1.64539 37.3899 0.970337C36.0998 0.541472 34.7494 0.322001 33.3899 0.320312C31.673 0.326161 29.9743 0.67206 28.3918 1.33801C26.8094 2.00396 25.3744 2.97678 24.1699 4.20032L23.0999 5.28033L22.03 4.20032C20.8256 2.97678 19.3906 2.00396 17.8081 1.33801C16.2256 0.67206 14.5267 0.326161 12.8098 0.320312C11.4503 0.322001 10.0999 0.541472 8.80981 0.970337C6.80068 1.62038 4.9852 2.76076 3.52734 4.28845C2.06949 5.81614 1.01535 7.683 0.459961 9.72034C0.156901 10.9372 0.0024802 12.1863 0 13.4403C0.106606 17.0689 1.20267 20.5994 3.16992 23.6503C5.18553 26.8769 7.63516 29.811 10.45 32.3703C14.3317 35.8976 18.5752 39.0048 23.1099 41.6403C26.5248 39.6396 29.7901 37.3937 32.8799 34.9203C30.8367 33.8728 29.123 32.2807 27.9282 30.32C26.7334 28.3593 26.1041 26.1064 26.1099 23.8103Z" fill="currentColor"/>
<path d="M45.24 17.1303C44.3646 16.2505 43.3235 15.5527 42.177 15.0773C41.0305 14.6018 39.801 14.3582 38.5598 14.3603C37.3188 14.3593 36.09 14.6034 34.9436 15.0788C33.7972 15.5542 32.756 16.2513 31.8799 17.1303C31.0014 18.0067 30.3044 19.048 29.8291 20.1943C29.3538 21.3406 29.1093 22.5694 29.1099 23.8103C29.1086 25.0529 29.3525 26.2834 29.8279 27.4315C30.3032 28.5795 31.0006 29.6224 31.8799 30.5004C32.7565 31.378 33.7979 32.0736 34.9443 32.5473C36.0907 33.0209 37.3194 33.2633 38.5598 33.2603C39.8004 33.2644 41.0295 33.0225 42.176 32.5488C43.3226 32.0751 44.3641 31.3789 45.24 30.5004C46.1211 29.6237 46.8195 28.5811 47.2949 27.4328C47.7704 26.2844 48.0135 25.0532 48.01 23.8103C48.0127 22.5691 47.7692 21.3396 47.2937 20.193C46.8182 19.0464 46.1203 18.0054 45.24 17.1303ZM33.24 23.8703C33.5037 23.5724 33.8743 23.3906 34.2712 23.3644C34.6682 23.3382 35.0593 23.4697 35.3599 23.7303L36.72 24.9303L41.6299 19.5903C41.7631 19.4452 41.9236 19.3277 42.1023 19.2446C42.281 19.1615 42.4745 19.1145 42.6714 19.1061C42.8683 19.0977 43.0647 19.1283 43.2498 19.1959C43.4348 19.2636 43.6049 19.367 43.75 19.5004C43.8952 19.6336 44.0126 19.7941 44.0957 19.9728C44.1788 20.1515 44.2258 20.3448 44.2341 20.5417C44.2425 20.7386 44.2119 20.9351 44.1443 21.1202C44.0766 21.3053 43.9732 21.4753 43.8398 21.6203L37.9399 28.0403C37.676 28.3297 37.3086 28.5035 36.9175 28.5241C36.5263 28.5446 36.1428 28.4104 35.8499 28.1503L33.3799 25.9903C33.0834 25.7253 32.9035 25.354 32.8792 24.957C32.8548 24.5601 32.9881 24.1696 33.25 23.8703H33.24Z" fill="currentColor"/>
</svg>
