<svg width="52" height="53" viewBox="0 0 52 53" fill="none" xmlns="http://www.w3.org/2000/svg">
<path d="M30.0937 19.4269L19.0982 30.4224L21.9266 33.2508L32.9221 22.2553L30.0937 19.4269Z" fill="currentColor"/>
<path d="M19.6202 49.4804C19.719 49.3863 19.7972 49.273 19.8505 49.1474C19.9038 49.0219 19.9309 48.8868 19.9301 48.7504C19.9309 48.614 19.9038 48.4789 19.8505 48.3533C19.7972 48.2278 19.719 48.1145 19.6202 48.0204L4.20008 32.5904C4.10511 32.4935 3.99159 32.4169 3.86609 32.3653C3.74059 32.3138 3.60576 32.2882 3.47009 32.2904C3.33443 32.2882 3.19984 32.3138 3.07434 32.3653C2.94884 32.4169 2.83508 32.4935 2.74011 32.5904L0.300173 35.0304C0.203259 35.1254 0.12665 35.239 0.0750749 35.3645C0.0234999 35.49 -0.00201133 35.6247 0.000123759 35.7604C-0.00201133 35.896 0.0234999 36.0307 0.0750749 36.1562C0.12665 36.2817 0.203259 36.3954 0.300173 36.4904L15.7301 51.9204C15.8251 52.0173 15.9388 52.0939 16.0643 52.1454C16.1898 52.197 16.3244 52.2225 16.4601 52.2204C16.733 52.2181 16.9944 52.1106 17.1901 51.9204L19.6202 49.4804Z" fill="currentColor"/>
<path d="M29.4201 45.4804C29.4182 45.1653 29.2926 44.8636 29.0702 44.6404L7.58022 23.1504C7.46916 23.0381 7.33658 22.9493 7.19057 22.8892C7.04457 22.8291 6.88801 22.7989 6.73012 22.8004C6.57374 22.7991 6.41866 22.8294 6.27431 22.8896C6.12996 22.9497 5.99923 23.0384 5.89003 23.1504L3.29018 25.7604C3.17729 25.8688 3.08795 25.9994 3.02773 26.1439C2.96751 26.2885 2.93761 26.4438 2.94008 26.6004C2.93879 26.7567 2.96929 26.9118 3.02944 27.0561C3.08959 27.2005 3.17823 27.3312 3.29018 27.4404L24.7802 48.9304C24.8894 49.0423 25.0201 49.131 25.1644 49.1912C25.3088 49.2513 25.4639 49.2817 25.6203 49.2804C25.7768 49.2828 25.932 49.253 26.0766 49.1928C26.2211 49.1326 26.3516 49.0433 26.4601 48.9304L29.0702 46.3204C29.1812 46.2105 29.2694 46.0797 29.3295 45.9355C29.3896 45.7913 29.4202 45.6366 29.4201 45.4804Z" fill="currentColor"/>
<path d="M47.4 20.2404C47.495 20.3373 47.6088 20.4139 47.7343 20.4654C47.8598 20.517 47.9943 20.5425 48.13 20.5404C48.2657 20.5425 48.4005 20.517 48.526 20.4654C48.6515 20.4139 48.7653 20.3373 48.8602 20.2404L51.3002 17.8004C51.3971 17.7054 51.4737 17.5917 51.5253 17.4662C51.5768 17.3407 51.6024 17.206 51.6002 17.0704C51.6024 16.9347 51.5768 16.8 51.5253 16.6745C51.4737 16.549 51.3971 16.4353 51.3002 16.3404L35.88 0.920368C35.7859 0.821645 35.6728 0.743211 35.5472 0.689899C35.4217 0.636588 35.2864 0.609529 35.15 0.610371C35.0136 0.609529 34.8786 0.636588 34.7531 0.689899C34.6275 0.743211 34.5142 0.821645 34.42 0.920368L31.9801 3.35036C31.8832 3.44532 31.8066 3.55903 31.755 3.68453C31.7034 3.81003 31.6779 3.94471 31.6801 4.08037C31.6779 4.21604 31.7034 4.35072 31.755 4.47622C31.8066 4.60171 31.8832 4.71542 31.9801 4.81038L47.4 20.2404Z" fill="currentColor"/>
<path d="M48.3204 27.0804C48.5392 26.8556 48.6611 26.5541 48.6603 26.2404C48.6626 25.9235 48.5407 25.6183 48.3204 25.3904L26.8204 3.86038C26.7105 3.74935 26.5796 3.66125 26.4354 3.60117C26.2912 3.54109 26.1365 3.51021 25.9803 3.51038C25.6652 3.51223 25.3634 3.63796 25.1402 3.86038L22.8104 6.19037C22.7007 6.30074 22.6141 6.43191 22.5558 6.57614C22.4974 6.72038 22.4683 6.87481 22.4703 7.0304C22.4684 7.34428 22.5907 7.64619 22.8104 7.87039L44.3104 29.3604C44.4189 29.4733 44.5494 29.5626 44.6939 29.6228C44.8385 29.6831 44.9937 29.7129 45.1502 29.7104C45.3066 29.7117 45.4617 29.6813 45.6061 29.6212C45.7504 29.561 45.8811 29.4723 45.9903 29.3604L48.3204 27.0804Z" fill="currentColor"/>
</svg>
