<svg width="39" height="42" viewBox="0 0 39 42" fill="none" xmlns="http://www.w3.org/2000/svg">
<path d="M36.1001 12.7897L22 1.00977C21.3444 0.457589 20.5415 0.109895 19.6902 0.00976562H18.8401C17.9823 0.107826 17.172 0.455533 16.51 1.00977L2.37012 12.7897C1.63573 13.4011 1.04332 14.1651 0.63404 15.0286C0.224758 15.892 0.00830093 16.8342 6.99606e-06 17.7897V36.8898C-0.000994629 37.4323 0.105566 37.9696 0.313239 38.4707C0.520913 38.9719 0.825797 39.427 1.21021 39.8098C1.59299 40.1942 2.04792 40.499 2.54908 40.7067C3.05024 40.9144 3.58765 41.0208 4.13013 41.0198H12.1301C12.3954 41.0198 12.6496 40.9144 12.8372 40.7269C13.0247 40.5393 13.1301 40.285 13.1301 40.0198V32.5998C13.139 30.8936 13.7928 29.254 14.9602 28.0098C15.5388 27.3849 16.2393 26.8851 17.0183 26.5412C17.7974 26.1972 18.6387 26.0164 19.4902 26.0098H19.6802C21.2923 26.059 22.8242 26.7247 23.9602 27.8698C24.5505 28.4569 25.0187 29.155 25.3379 29.9239C25.6571 30.6928 25.8209 31.5172 25.8201 32.3498V40.0198C25.8201 40.285 25.9255 40.5393 26.113 40.7269C26.3006 40.9144 26.5549 41.0198 26.8201 41.0198H34.3701C34.9128 41.0219 35.4504 40.916 35.9517 40.7082C36.453 40.5005 36.9079 40.1951 37.29 39.8098C37.6742 39.4288 37.9791 38.9755 38.1868 38.476C38.3945 37.9765 38.5008 37.4407 38.5 36.8997V17.7897C38.4874 16.832 38.2663 15.8885 37.8518 15.025C37.4373 14.1614 36.8395 13.3987 36.1001 12.7897Z" fill="currentColor"/>
</svg>
