<svg width="34" height="44" viewBox="0 0 34 44" fill="none" xmlns="http://www.w3.org/2000/svg">
<path d="M0.576179 35.1579C1.00416 35.7841 1.62322 36.2483 2.3372 36.4781C4.40447 37.1037 6.52389 37.5338 8.66858 37.763C11.4278 38.0832 14.2032 38.24 16.9802 38.2324C19.7591 38.2402 22.536 38.0834 25.2971 37.763C27.4418 37.5338 29.5612 37.1037 31.6285 36.4781C32.3425 36.2483 32.9618 35.7841 33.3898 35.1579C33.7899 34.5662 34.0029 33.8638 34 33.1453C33.9997 32.6733 33.9063 32.2062 33.7254 31.7718C33.5444 31.3373 33.2795 30.9445 32.9466 30.6165C31.8522 29.4876 31.0595 28.0917 30.6443 26.562C30.2601 25.2482 30.0662 23.8844 30.0687 22.5135C30.0687 21.9268 30.0976 21.4633 30.1263 21.0819C30.1724 20.5714 30.207 20.0491 30.207 19.5152C30.21 18.9493 30.1675 18.3842 30.0802 17.8254C29.5783 14.6836 27.9999 11.825 25.6254 9.75765C24.1499 8.46083 22.4099 7.51486 20.5315 6.98823C21.0566 6.24053 21.3384 5.34367 21.3372 4.42408C21.3372 3.25075 20.8799 2.1255 20.0661 1.29583C19.2522 0.466153 18.1483 0 16.9973 0C15.8473 0.0015548 14.7449 0.46847 13.9323 1.29797C13.1196 2.12748 12.6633 3.25177 12.6633 4.42408C12.6622 5.34367 12.944 6.24053 13.4691 6.98823C11.5907 7.51486 9.85064 8.46083 8.37517 9.75765C6.00069 11.825 4.42204 14.6836 3.92005 17.8254C3.83277 18.3842 3.79058 18.9493 3.79358 19.5152C3.79358 20.0491 3.82819 20.5714 3.87424 21.0819C3.87424 21.4633 3.93157 21.9502 3.93157 22.5135C3.94056 23.8827 3.75658 25.2462 3.38494 26.562C2.96145 28.0947 2.15859 29.4909 1.05367 30.6165C0.720777 30.9445 0.456129 31.3373 0.27518 31.7718C0.0942317 32.2062 0.000913161 32.6733 0.000599889 33.1453C-0.0124698 33.8601 0.188293 34.5622 0.576179 35.1579ZM15.5412 5.89682C15.1659 5.50279 14.959 4.97326 14.9657 4.42408C14.9599 3.87681 15.1668 3.34945 15.5412 2.95722C15.9264 2.57606 16.4435 2.36521 16.9802 2.37048C17.5189 2.36366 18.0382 2.57462 18.4248 2.95722C18.7992 3.34945 19.0061 3.87681 19.0003 4.42408C19.007 4.97326 18.8001 5.50279 18.4248 5.89682C18.0382 6.27942 17.5189 6.49039 16.9802 6.48357C16.7115 6.48882 16.4444 6.43975 16.1944 6.33903C15.9444 6.23831 15.7164 6.08795 15.5238 5.89682H15.5412Z" fill="currentColor"/>
<path d="M19.2534 39.2298C19.1034 39.2109 18.9512 39.2224 18.8055 39.2635C18.6597 39.3046 18.5236 39.3745 18.4044 39.4693C18.2852 39.5641 18.1855 39.6819 18.111 39.816C18.0365 39.9501 17.9884 40.0978 17.9699 40.2508C17.9237 40.6356 17.7415 40.9902 17.4576 41.2482C17.1693 41.5103 16.7963 41.6544 16.4101 41.653C16.0285 41.6537 15.66 41.5118 15.3742 41.2541C15.0889 40.9988 14.9045 40.6463 14.8559 40.2625C14.8158 39.9546 14.6578 39.6754 14.4161 39.4862C14.1744 39.2971 13.869 39.2133 13.5668 39.2533C13.4167 39.2729 13.2717 39.3223 13.1404 39.399C13.0091 39.4757 12.894 39.5779 12.8015 39.7C12.709 39.822 12.6412 39.9615 12.6017 40.1104C12.5621 40.2592 12.5517 40.4147 12.571 40.5676C12.6928 41.5122 13.1467 42.3795 13.8487 43.0084C14.5543 43.6479 15.4659 44.0007 16.4101 44C17.3612 43.9991 18.2789 43.6421 18.9887 42.9967C19.6913 42.36 20.1417 41.4837 20.2551 40.5324C20.2909 40.2244 20.2055 39.9145 20.0179 39.6705C19.8302 39.4264 19.5553 39.268 19.2534 39.2298Z" fill="currentColor"/>
</svg>
