<svg width="38" height="43" viewBox="0 0 38 43" fill="none" xmlns="http://www.w3.org/2000/svg">
<path d="M30.4438 12.4397C29.8632 12.4411 29.288 12.3276 28.7512 12.1058C28.2144 11.8841 27.7264 11.5583 27.3154 11.1472C26.9043 10.7361 26.5783 10.2478 26.3558 9.71016C26.1333 9.17255 26.0187 8.59622 26.0187 8.01416V3.13477e-05H7.43084C7.05953 -0.00173902 6.69168 0.0714943 6.3492 0.215292C6.00672 0.35909 5.69673 0.570558 5.43752 0.837064C5.17166 1.09691 4.96052 1.40773 4.81707 1.75104C4.67363 2.09436 4.60076 2.46312 4.60253 2.83533V21.1757C6.24626 20.4455 8.023 20.0643 9.82088 20.0562C12.1612 20.0489 14.46 20.6749 16.475 21.8681C18.4901 23.0613 20.1467 24.7775 21.2699 26.8358H33.5853C34.0005 26.8358 34.3986 27.0011 34.6922 27.2954C34.9857 27.5897 35.1508 27.9889 35.1508 28.4051C35.1508 28.8213 34.9857 29.2205 34.6922 29.5148C34.3986 29.8091 34.0005 29.9745 33.5853 29.9745H22.4805C22.7407 31.0004 22.874 32.0546 22.8772 33.1131C22.8766 34.9929 22.4695 36.8501 21.684 38.5569C20.8984 40.2638 19.7529 41.7796 18.3267 43H35.1717C35.9224 43.0009 36.6428 42.7037 37.1755 42.1735C37.4371 41.911 37.6445 41.5994 37.786 41.2565C37.9274 40.9137 38.0002 40.5462 38 40.1752V12.4711L30.4438 12.4397ZM9.33039 5.48231H15.3106C15.7258 5.48231 16.1239 5.64765 16.4175 5.94195C16.7111 6.23626 16.8761 6.63544 16.8761 7.05165C16.8761 7.46787 16.7111 7.86701 16.4175 8.16132C16.1239 8.45563 15.7258 8.62096 15.3106 8.62096H9.33039C8.91519 8.62096 8.51686 8.45563 8.22327 8.16132C7.92968 7.86701 7.76488 7.46787 7.76488 7.05165C7.76488 6.63544 7.92968 6.23626 8.22327 5.94195C8.51686 5.64765 8.91519 5.48231 9.33039 5.48231ZM21.3013 15.8399H9.33039C8.91519 15.8399 8.51686 15.6746 8.22327 15.3803C7.92968 15.086 7.76488 14.6868 7.76488 14.2706C7.76488 13.8544 7.92968 13.4552 8.22327 13.1609C8.51686 12.8666 8.91519 12.7012 9.33039 12.7012H21.2699C21.6851 12.7012 22.0832 12.8666 22.3768 13.1609C22.6704 13.4552 22.8354 13.8544 22.8354 14.2706C22.8354 14.6868 22.6704 15.086 22.3768 15.3803C22.0832 15.6746 21.6851 15.8399 21.2699 15.8399H21.3013ZM33.5748 36.9946H28.0538C27.6386 36.9946 27.2405 36.8293 26.9469 36.535C26.6533 36.2407 26.4883 35.8415 26.4883 35.4253C26.4883 35.0091 26.6533 34.6099 26.9469 34.3156C27.2405 34.0213 27.6386 33.8559 28.0538 33.8559H33.5748C33.99 33.8559 34.3881 34.0213 34.6817 34.3156C34.9753 34.6099 35.1404 35.0091 35.1404 35.4253C35.1404 35.8415 34.9753 36.2407 34.6817 36.535C34.3881 36.8293 33.99 36.9946 33.5748 36.9946Z" fill="currentColor"/>
<path d="M30.4438 9.30097H37.9686L29.1288 0.701018V8.02457C29.1315 8.19495 29.1677 8.36314 29.2353 8.5195C29.3028 8.67585 29.4003 8.81731 29.5224 8.93584C29.6446 9.05437 29.7889 9.14765 29.9469 9.2103C30.105 9.27295 30.2738 9.30374 30.4438 9.30097Z" fill="currentColor"/>
<path d="M9.87309 42.9686C11.1686 42.9714 12.4516 42.7168 13.6482 42.2193C14.8449 41.7219 15.9314 40.9915 16.8447 40.0705C17.7621 39.1539 18.4897 38.0647 18.9858 36.8653C19.482 35.6659 19.7368 34.3801 19.7357 33.0817C19.738 31.7832 19.4836 30.497 18.9874 29.2975C18.4912 28.098 17.763 27.0088 16.8447 26.0929C15.9314 25.1719 14.8449 24.4416 13.6482 23.9441C12.4516 23.4467 11.1686 23.192 9.87309 23.1949C8.57594 23.1912 7.29081 23.4455 6.09233 23.9429C4.89385 24.4404 3.80563 25.1711 2.89073 26.0929C1.9743 27.0102 1.24747 28.0996 0.751413 29.2988C0.255352 30.498 2.36175e-05 31.7835 0 33.0817C0.00233974 35.7032 1.04182 38.2166 2.89073 40.0705C3.80563 40.9923 4.89385 41.7231 6.09233 42.2205C7.29081 42.718 8.57594 42.9722 9.87309 42.9686ZM7.04478 30.1C7.04427 29.8048 7.12603 29.5154 7.28124 29.2645C7.43645 29.0137 7.6588 28.8114 7.92283 28.6807C8.18685 28.55 8.4821 28.4961 8.77514 28.525C9.06819 28.554 9.34733 28.6647 9.58083 28.8445L13.4946 31.8158C13.6892 31.9642 13.8469 32.1556 13.9555 32.3752C14.0642 32.5948 14.1209 32.8366 14.1209 33.0817C14.1209 33.3268 14.0642 33.5686 13.9555 33.7882C13.8469 34.0078 13.6892 34.1993 13.4946 34.3477L9.58083 37.298C9.34733 37.4779 9.06819 37.5885 8.77514 37.6175C8.4821 37.6464 8.18685 37.5925 7.92283 37.4618C7.6588 37.3311 7.43645 37.1289 7.28124 36.878C7.12603 36.6272 7.04427 36.3377 7.04478 36.0425V30.1Z" fill="currentColor"/>
</svg>
