<svg width="44" height="42" viewBox="0 0 44 42" fill="none" xmlns="http://www.w3.org/2000/svg">
<path d="M33.9999 30.4458L42.4801 35.9345C43.2363 36.4244 43.7598 37.1842 43.9355 38.0467C44.1112 38.9091 43.9247 39.8036 43.417 40.5333C42.9093 41.263 42.1219 41.7682 41.2282 41.9377C40.3345 42.1073 39.4078 41.9273 38.6516 41.4374C38.2506 41.1741 37.9103 40.8338 37.6521 40.4376L32.2656 32.0627C32.1182 31.8315 32.057 31.5587 32.0923 31.2893C32.1171 31.0991 32.1891 30.9186 32.3005 30.7625C26.6819 35.9914 18.8178 35.4311 18.8178 35.4311C18.8178 35.4311 5.86966 36.353 1.32827 24.7941C-0.442758 20.2357 -0.442758 15.2125 1.32827 10.6541C5.86966 -0.897681 18.8178 0.0171007 18.8178 0.0171007C18.8178 0.0171007 31.7584 -0.890589 36.2998 10.6541C38.0782 15.2112 38.0782 20.237 36.2998 24.7941C35.3671 27.168 34.0802 29.0154 32.6238 30.4526C32.7958 30.34 32.9955 30.2704 33.2048 30.2519C33.4849 30.2273 33.7655 30.2957 33.9999 30.4458Z" fill="currentColor"/>
<ellipse cx="18.5261" cy="17.4998" rx="13.8947" ry="12.8333" fill="#212020"/>
</svg>
