<svg width="44" height="43" viewBox="0 0 44 43" fill="none" xmlns="http://www.w3.org/2000/svg">
<path d="M40.3492 13.6404L32.1293 11.5704C31.113 11.311 30.2333 10.6746 29.6691 9.79039L25.159 2.61039C24.798 2.02111 24.2905 1.53543 23.6859 1.20069C23.0813 0.86596 22.4002 0.693594 21.7091 0.700389C21.0197 0.695326 20.3409 0.868514 19.7381 1.20317C19.1354 1.53782 18.6293 2.02257 18.2692 2.61039L13.7491 9.79039C13.1911 10.6761 12.314 11.3133 11.2992 11.5704L3.07921 13.6404C2.41055 13.8082 1.7954 14.1432 1.29162 14.6138C0.787838 15.0844 0.411992 15.6753 0.199087 16.331C-0.0138175 16.9867 -0.0568826 17.6858 0.0743315 18.3626C0.205546 19.0394 0.50657 19.6717 0.949087 20.2004L6.37926 26.7104C7.05061 27.5142 7.38711 28.5453 7.3192 29.5904L6.74914 38.0504C6.71223 38.6068 6.78973 39.1648 6.97692 39.6901C7.16411 40.2153 7.45705 40.6966 7.83751 41.1043C8.21798 41.5119 8.67797 41.8372 9.18908 42.0602C9.70018 42.2831 10.2516 42.3989 10.8092 42.4004C11.3296 42.4001 11.8453 42.3017 12.3292 42.1104L20.1991 38.9504C20.6802 38.7612 21.1922 38.6629 21.7091 38.6604C22.2294 38.6619 22.7448 38.7602 23.2291 38.9504L31.0992 42.1104C31.5832 42.3017 32.0989 42.4001 32.6193 42.4004C33.1769 42.3989 33.728 42.2831 34.2391 42.0602C34.7502 41.8372 35.2102 41.5119 35.5907 41.1043C35.9712 40.6966 36.2641 40.2153 36.4513 39.6901C36.6385 39.1648 36.716 38.6068 36.6791 38.0504L36.1092 29.5904C36.0413 28.5453 36.3778 27.5142 37.0492 26.7104L42.4791 20.2004C42.9216 19.6717 43.2227 19.0394 43.3539 18.3626C43.4851 17.6858 43.4423 16.9867 43.2294 16.331C43.0165 15.6753 42.6404 15.0844 42.1366 14.6138C41.6328 14.1432 41.0179 13.8082 40.3492 13.6404Z" fill="currentColor"/>
</svg>
