<svg width="49" height="47" viewBox="0 0 49 47" fill="none" xmlns="http://www.w3.org/2000/svg">
<path d="M42.4684 39.2999C41.44 37.1573 40.0806 35.1923 38.4407 33.4784C36.1694 35.748 33.377 37.4186 30.3109 38.3421C30.1678 39.4244 29.6394 40.4178 28.8239 41.1377C28.0084 41.8577 26.9612 42.2555 25.8765 42.2572C25.2849 42.2584 24.6989 42.1422 24.152 41.9151C23.6051 41.6881 23.1079 41.3547 22.6891 40.934C22.2703 40.5133 21.9383 40.0137 21.7116 39.4636C21.4849 38.9135 21.3681 38.3238 21.3681 37.7283C21.3681 37.1328 21.4849 36.5431 21.7116 35.993C21.9383 35.4429 22.2703 34.9433 22.6891 34.5226C23.1079 34.102 23.6051 33.7686 24.152 33.5415C24.6989 33.3144 25.2849 33.1982 25.8765 33.1994C26.6835 33.2031 27.4745 33.4251 28.1669 33.8424C28.8593 34.2596 29.4276 34.8566 29.812 35.5708C32.2778 34.7826 34.5268 33.4261 36.3803 31.6092C36.0108 31.3209 35.6321 31.0419 35.2533 30.7815C34.137 30.023 32.945 29.3841 31.6967 28.8751C29.7004 30.3983 27.2636 31.2214 24.7587 31.2186C22.3056 31.2208 19.9162 30.4321 17.9407 28.9681C16.7621 29.476 15.6359 30.099 14.5781 30.828C11.4733 32.9823 8.9852 35.9198 7.3629 39.3464C7.16333 39.7742 7.0592 40.2408 7.05796 40.7135C7.06132 41.2799 7.19759 41.8374 7.45537 42.3409C7.68658 42.8047 8.04158 43.1943 8.4807 43.4661C10.727 44.7278 13.1649 45.6076 15.6959 46.07C18.7365 46.6915 21.8315 47.0031 24.9342 47C28.0368 47.0027 31.1318 46.6911 34.1725 46.07C36.702 45.6073 39.1394 44.7308 41.3876 43.4754C41.8332 43.1776 42.1976 42.7722 42.4477 42.2963C42.6978 41.8204 42.8257 41.289 42.8196 40.7507C42.8133 40.2657 42.7063 39.7873 42.5054 39.3464L42.4684 39.2999Z" fill="currentColor"/>
<path d="M18.5414 25.8342C19.3562 26.6585 20.3252 27.3121 21.3923 27.7574C22.4594 28.2027 23.6036 28.4309 24.7588 28.4288C25.9142 28.433 27.059 28.2057 28.1264 27.7603C29.1938 27.3148 30.1625 26.6601 30.9761 25.8342C31.7966 25.0152 32.4469 24.04 32.8894 22.9655C33.3319 21.8911 33.5578 20.7387 33.5536 19.5756C33.5558 18.4127 33.3291 17.261 32.8867 16.1868C32.4443 15.1126 31.7949 14.1372 30.9761 13.317C30.1625 12.4911 29.1938 11.8363 28.1264 11.3909C27.059 10.9454 25.9142 10.7182 24.7588 10.7224C23.6036 10.7203 22.4594 10.9485 21.3923 11.3938C20.3252 11.8391 19.3562 12.4927 18.5414 13.317C17.7226 14.1372 17.0732 15.1126 16.6308 16.1868C16.1884 17.261 15.9617 18.4127 15.9639 19.5756C15.9597 20.7387 16.1854 21.8911 16.6279 22.9655C17.0704 24.04 17.7209 25.0152 18.5414 25.8342Z" fill="currentColor"/>
<path d="M42.7364 27.5546C43.5597 27.5546 44.375 27.3912 45.1355 27.0738C45.896 26.7563 46.5868 26.291 47.1686 25.7046C47.7503 25.1181 48.2117 24.422 48.5259 23.6559C48.8401 22.8899 49.0012 22.069 49 21.2402C48.9984 19.7287 48.4573 18.268 47.4755 17.1244C46.4937 15.9807 45.1365 15.2302 43.651 15.0095C42.6402 10.7321 40.225 6.92327 36.7965 4.19934C33.3679 1.47541 29.1265 -0.004201 24.7587 8.95915e-06C20.3953 -0.000512166 16.1591 1.47967 12.7345 4.20144C9.30982 6.92321 6.89657 10.7276 5.88468 15.0002C4.29318 15.0973 2.79835 15.8016 1.70489 16.9697C0.611434 18.1378 0.00178541 19.6817 0 21.2867C-1.8025e-06 22.9598 0.65952 24.5645 1.8339 25.7484C3.00828 26.9323 4.60155 27.5986 6.2636 27.6011C6.63797 27.5995 7.00719 27.5137 7.34441 27.35C7.86145 27.0889 8.29173 26.6817 8.58242 26.1783C9.00105 25.4772 9.289 24.7051 9.43227 23.8999C9.59755 23.0389 9.67802 22.1636 9.67248 21.2867C9.69532 19.9758 9.49546 18.6705 9.08132 17.4274C8.92722 16.9825 8.70918 16.5627 8.43446 16.1813C9.09846 12.9878 10.6752 10.0593 12.9706 7.75587C14.5169 6.19492 16.3542 4.95678 18.3771 4.11255C20.4001 3.26833 22.5688 2.83463 24.7587 2.83636C26.9501 2.8334 29.1204 3.26654 31.145 4.1108C33.1696 4.95505 35.0086 6.19381 36.556 7.75587C38.7318 9.94883 40.2578 12.7086 40.9627 15.7256C40.7558 15.9267 40.5728 16.1514 40.4176 16.3951C40.0003 17.1002 39.7125 17.8752 39.5677 18.6828C39.4029 19.5408 39.3224 20.4129 39.3275 21.2867C39.3039 22.5977 39.5038 23.903 39.9187 25.146C40.0082 25.3911 40.1132 25.6303 40.2329 25.8621C39.7124 27.1826 39.0296 28.4323 38.2005 29.5819C37.9418 29.926 37.683 30.2701 37.4059 30.5956L39.503 32.4555C39.7709 32.1393 40.0204 31.8138 40.2606 31.5255C41.1595 30.3357 41.916 29.0434 42.5147 27.6755L42.7364 27.5546ZM6.91948 21.2402C6.94326 22.224 6.80278 23.2048 6.5038 24.1417C6.42837 24.3619 6.31919 24.569 6.18037 24.7554C5.29098 24.7319 4.44441 24.3658 3.81531 23.7325C3.48895 23.4061 3.23036 23.0178 3.05432 22.5899C2.87829 22.1621 2.78845 21.7033 2.78999 21.2402C2.78865 20.7786 2.87872 20.3212 3.05477 19.8949C3.23083 19.4686 3.48923 19.0819 3.81531 18.7572C4.44441 18.1239 5.29098 17.7578 6.18037 17.7343C6.43805 18.1176 6.61134 18.552 6.68852 19.0083C6.84621 19.7416 6.92366 20.49 6.91948 21.2402ZM42.8564 24.7554C42.5993 24.3684 42.4263 23.9311 42.3485 23.4721C42.1987 22.7409 42.1244 21.9961 42.1268 21.2495C42.1076 20.269 42.248 19.2921 42.5424 18.3573C42.6179 18.1371 42.7268 17.93 42.8656 17.7436C43.755 17.7671 44.6016 18.1332 45.2307 18.7665C45.5568 19.0912 45.8154 19.4779 45.9915 19.9042C46.1675 20.3305 46.2576 20.7878 46.2562 21.2495C46.2578 21.7126 46.1679 22.1713 45.9919 22.5992C45.8159 23.027 45.5571 23.4154 45.2307 23.7418C44.5932 24.3783 43.7356 24.7415 42.8379 24.7554H42.8564Z" fill="currentColor"/>
<path d="M24.1396 37.7283C24.142 38.1904 24.3261 38.6327 24.6516 38.9586C24.977 39.2844 25.4175 39.4673 25.8765 39.4673C26.3347 39.4673 26.7741 39.2841 27.098 38.958C27.422 38.6319 27.6039 38.1895 27.6039 37.7283C27.6039 37.2671 27.422 36.8248 27.098 36.4986C26.7741 36.1725 26.3347 35.9893 25.8765 35.9893C25.4175 35.9893 24.977 36.1722 24.6516 36.4981C24.3261 36.8239 24.142 37.2662 24.1396 37.7283Z" fill="currentColor"/>
</svg>
